<svg aria-hidden="true" style="position: absolute; width: 0; height: 0; overflow: hidden;" version="1.1" xmlns="http://www.w3.org/2000/svg" xmlns:xlink="http://www.w3.org/1999/xlink">
<defs>
<symbol id="statistics" viewBox="0 0 32 32">
<path d="M6.667 4h18.667c1.473 0 2.667 1.194 2.667 2.667v18.667c0 1.473-1.194 2.667-2.667 2.667h-18.667c-1.473 0-2.667-1.194-2.667-2.667v-18.667c0-1.473 1.194-2.667 2.667-2.667zM23.636 14.222c0.933 0 1.697-0.8 1.697-1.778s-0.764-1.778-1.697-1.778-1.697 0.8-1.697 1.778c0 0.16 0.017 0.311 0.059 0.453l-3.012 3.165c-0.136-0.045-0.289-0.062-0.441-0.062s-0.305 0.018-0.441 0.062l-2.164-2.267c0.042-0.142 0.059-0.302 0.059-0.462 0-0.978-0.764-1.778-1.697-1.778s-1.697 0.8-1.697 1.778c0 0.16 0.017 0.32 0.059 0.462l-3.869 4.044c-0.136-0.044-0.28-0.062-0.433-0.062-0.933 0-1.697 0.8-1.697 1.778s0.764 1.778 1.697 1.778 1.697-0.8 1.697-1.778c0-0.16-0.017-0.311-0.059-0.453l3.861-4.053c0.136 0.044 0.288 0.062 0.441 0.062s0.305-0.018 0.441-0.062l2.164 2.267c-0.042 0.142-0.059 0.302-0.059 0.462 0 0.978 0.764 1.778 1.697 1.778s1.697-0.8 1.697-1.778c0-0.16-0.017-0.32-0.059-0.462l3.021-3.156c0.136 0.044 0.28 0.062 0.433 0.062z"></path>
</symbol>
<symbol id="home" viewBox="0 0 32 32">
<path d="M6.545 2.182c-2.41 0-4.364 1.954-4.364 4.364v18.909c0 2.41 1.954 4.364 4.364 4.364h18.909c2.41 0 4.364-1.954 4.364-4.364v-18.909c0-2.41-1.954-4.364-4.364-4.364h-18.909zM13.77 17.716v5.961h-4.97v-7.948h-2.982l9.939-8.941 9.939 8.941h-2.982v7.948h-4.97v-5.961h-3.976z"></path>
</symbol>
<symbol id="dollar" viewBox="0 0 32 32">
<path d="M6.545 2.182c-2.41 0-4.364 1.954-4.364 4.364v18.909c0 2.41 1.954 4.364 4.364 4.364h18.909c2.41 0 4.364-1.954 4.364-4.364v-18.909c0-2.41-1.954-4.364-4.364-4.364h-18.909zM13.638 13.526c0 0.86 0.661 1.412 2.715 1.946s4.253 1.412 4.253 3.982c0 1.855-1.403 2.878-3.167 3.212v1.946h-2.715v-1.964c-1.737-0.371-3.222-1.484-3.33-3.466h1.991c0.1 1.068 0.833 1.9 2.697 1.9 2 0 2.443-0.995 2.443-1.62 0-0.842-0.452-1.638-2.715-2.181-2.525-0.606-4.253-1.647-4.253-3.737 0-1.747 1.412-2.887 3.167-3.267v-1.955h2.715v1.982c1.891 0.462 2.841 1.891 2.905 3.448h-2c-0.054-1.131-0.651-1.9-2.262-1.9-1.529 0-2.443 0.688-2.443 1.674z"></path>
</symbol>
</defs>
</svg>
